<?xml version="1.0" encoding="utf-8"?>
<!DOCTYPE svg PUBLIC "-//W3C//DTD SVG 1.1//EN" "http://www.w3.org/Graphics/SVG/1.1/DTD/svg11.dtd">
<svg
	version="1.1"
	xmlns="http://www.w3.org/2000/svg"
	xmlns:xlink="http://www.w3.org/1999/xlink"
	xmlns:xml="http://www.w3.org/XML/1998/namespace"
	width="122"
	height="122"
>

<pattern id="diagHatchUp" patternUnits="userSpaceOnUse" width="4" height="4">
<path d="
 M0,4 l4,-4
 M-1,1 l2,-2
 M3,5 l2,-2
" style="stroke:black; stroke-width:0.4" />
</pattern>
<pattern id="diagHatchDown" patternUnits="userSpaceOnUse" width="4" height="4">
<path d="
 M0,0 l4,4
 M-1,3 l2,2
 M3,-1 l2,2
" style="stroke:black; stroke-width:0.4" />
</pattern>
<pattern id="smallConfetti" patternUnits="userSpaceOnUse" width="4" height="4">
<path d="
M0.0,3.5 l1.0,-0.2
M0.2,1.4 l0.2,1.1
M1.0,0.2 l0.8,0.4
M2.1,1.7 l-0.3,0.9
M3.0,1.4 l0.7,-0.7
M2.5,3.0 l0.7,0.7
" style="stroke:black; stroke-width:0.3" />
</pattern>

<rect x="0" y="0" width="122" height="122" fill="#ffffff" />
<rect x="0" y="0" width="22" height="22" fill="#000000" />
<rect x="20" y="0" width="22" height="22" fill="#000000" />
<rect x="40" y="0" width="22" height="22" fill="#000000" />
<rect x="60" y="0" width="22" height="22" fill="#000000" />
<rect x="80" y="0" width="22" height="22" fill="#000000" />
<rect x="100" y="0" width="22" height="22" fill="#000000" />
<rect x="0" y="20" width="22" height="22" fill="#000000" />
<rect x="20" y="20" width="22" height="22" fill="#000000" />
<rect x="40" y="20" width="22" height="22" fill="#000000" />
<rect x="60" y="20" width="22" height="22" fill="#000000" />
<rect x="80" y="20" width="22" height="22" fill="#000000" />
<rect x="100" y="20" width="22" height="22" fill="#000000" />
<rect x="0" y="40" width="22" height="22" fill="#000000" />
<rect x="40" y="40" width="22" height="22" fill="#000000" />
<rect x="0" y="60" width="22" height="22" fill="#000000" />
<rect x="40" y="60" width="22" height="22" fill="#000000" />
<rect x="60" y="60" width="22" height="22" fill="#000000" />
<rect x="80" y="60" width="22" height="22" fill="#000000" />
<rect x="0" y="80" width="22" height="22" fill="#000000" />
<rect x="20" y="80" width="22" height="22" fill="#000000" />
<rect x="40" y="80" width="22" height="22" fill="#000000" />
<rect x="60" y="80" width="22" height="22" fill="#000000" />
<rect x="80" y="80" width="22" height="22" fill="#000000" />
<rect x="20" y="100" width="22" height="22" fill="#000000" />
<rect x="40" y="100" width="22" height="22" fill="#000000" />
<rect x="19" y="6" width="4" height="10" fill="#f0f0f0" />
<rect x="6" y="19" width="10" height="4" fill="#f0f0f0" />
<rect x="39" y="6" width="4" height="10" fill="#f0f0f0" />
<rect x="26" y="19" width="10" height="4" fill="#f0f0f0" />
<rect x="59" y="6" width="4" height="10" fill="#f0f0f0" />
<rect x="46" y="19" width="10" height="4" fill="#f0f0f0" />
<rect x="79" y="6" width="4" height="10" fill="#f0f0f0" />
<rect x="66" y="19" width="10" height="4" fill="#f0f0f0" />
<rect x="99" y="6" width="4" height="10" fill="#f0f0f0" />
<rect x="86" y="19" width="10" height="4" fill="#f0f0f0" />
<rect x="106" y="19" width="10" height="4" fill="#f0f0f0" />
<rect x="19" y="26" width="4" height="10" fill="#f0f0f0" />
<rect x="6" y="39" width="10" height="4" fill="#cfd4ca" />
<rect x="6" y="39" width="10" height="4" fill="url(#diagHatchDown)" />
<rect x="39" y="26" width="4" height="10" fill="#f0f0f0" />
<rect x="59" y="26" width="4" height="10" fill="#f0f0f0" />
<rect x="46" y="39" width="10" height="4" fill="#d6ab86" />
<rect x="79" y="26" width="4" height="10" fill="#f0f0f0" />
<rect x="99" y="26" width="4" height="10" fill="#f0f0f0" />
<rect x="46" y="59" width="10" height="4" fill="#d6ab86" />
<rect x="6" y="79" width="10" height="4" fill="#90e4c3" />
<rect x="79" y="66" width="4" height="10" fill="#c386c2" />
<rect x="66" y="79" width="10" height="4" fill="#c386c2" />
<rect x="86" y="79" width="10" height="4" fill="#c386c2" />
<rect x="19" y="86" width="4" height="10" fill="#90e4c3" />
<rect x="26" y="99" width="10" height="4" fill="#90e4c3" />
<rect x="59" y="86" width="4" height="10" fill="#c386c2" />
<rect x="79" y="86" width="4" height="10" fill="#c386c2" />
<rect x="39" y="106" width="4" height="10" fill="#90e4c3" />
<rect x="2" y="2" width="18" height="18" fill="#f0f0f0" />
<rect x="22" y="2" width="18" height="18" fill="#f0f0f0" />
<rect x="42" y="2" width="18" height="18" fill="#f0f0f0" />
<rect x="62" y="2" width="18" height="18" fill="#f0f0f0" />
<rect x="82" y="2" width="18" height="18" fill="#f0f0f0" />
<rect x="102" y="2" width="18" height="18" fill="#f0f0f0" />
<rect x="2" y="22" width="18" height="18" fill="#cfd4ca" />
<rect x="2" y="22" width="18" height="18" fill="url(#diagHatchDown)" />
<rect x="22" y="22" width="18" height="18" fill="#f0f0f0" />
<rect x="22" y="22" width="18" height="18" fill="url(#diagHatchUp)" />
<rect x="42" y="22" width="18" height="18" fill="#d6ab86" />
<rect x="62" y="22" width="18" height="18" fill="#f0f0f0" />
<rect x="82" y="22" width="18" height="18" fill="#f0f0f0" />
<rect x="102" y="22" width="18" height="18" fill="#f0f0f0" />
<rect x="2" y="42" width="18" height="18" fill="#cfd4ca" />
<rect x="2" y="42" width="18" height="18" fill="url(#diagHatchDown)" />
<rect x="42" y="42" width="18" height="18" fill="#d6ab86" />
<rect x="2" y="62" width="18" height="18" fill="#90e4c3" />
<rect x="42" y="62" width="18" height="18" fill="#d6ab86" />
<rect x="62" y="62" width="18" height="18" fill="#c386c2" />
<rect x="82" y="62" width="18" height="18" fill="#c386c2" />
<rect x="2" y="82" width="18" height="18" fill="#90e4c3" />
<rect x="22" y="82" width="18" height="18" fill="#90e4c3" />
<rect x="42" y="82" width="18" height="18" fill="#c386c2" />
<rect x="62" y="82" width="18" height="18" fill="#c386c2" />
<rect x="82" y="82" width="18" height="18" fill="#c386c2" />
<rect x="22" y="102" width="18" height="18" fill="#90e4c3" />
<rect x="42" y="102" width="18" height="18" fill="#90e4c3" />
<svg x="1" y="1" width="20" height="20">
<text x="50%" y="50%" dominant-baseline="central" text-anchor="middle" style="white-space: pre;" fill="#000000" font-family="Consolas" font-size="14"> 0</text>
</svg>
<svg x="21" y="1" width="20" height="20">
<text x="50%" y="50%" dominant-baseline="central" text-anchor="middle" style="white-space: pre;" fill="#000000" font-family="Consolas" font-size="14"> 1</text>
</svg>
<svg x="41" y="1" width="20" height="20">
<text x="50%" y="50%" dominant-baseline="central" text-anchor="middle" style="white-space: pre;" fill="#000000" font-family="Consolas" font-size="14"> 2</text>
</svg>
<svg x="61" y="1" width="20" height="20">
<text x="50%" y="50%" dominant-baseline="central" text-anchor="middle" style="white-space: pre;" fill="#000000" font-family="Consolas" font-size="14"> 3</text>
</svg>
<svg x="81" y="1" width="20" height="20">
<text x="50%" y="50%" dominant-baseline="central" text-anchor="middle" style="white-space: pre;" fill="#000000" font-family="Consolas" font-size="14"> 4</text>
</svg>
<svg x="101" y="1" width="20" height="20">
<text x="50%" y="50%" dominant-baseline="central" text-anchor="middle" style="white-space: pre;" fill="#000000" font-family="Consolas" font-size="14"> 5</text>
</svg>
<svg x="1" y="21" width="20" height="20">
<text x="50%" y="50%" dominant-baseline="central" text-anchor="middle" style="white-space: pre;" fill="#000000" font-family="Consolas" font-size="14"> 6</text>
</svg>
<svg x="21" y="21" width="20" height="20">
<text x="50%" y="50%" dominant-baseline="central" text-anchor="middle" style="white-space: pre;" fill="#000000" font-family="Consolas" font-size="14"> 7</text>
</svg>
<svg x="41" y="21" width="20" height="20">
<text x="50%" y="50%" dominant-baseline="central" text-anchor="middle" style="white-space: pre;" fill="#000000" font-family="Consolas" font-size="14"> 8</text>
</svg>
<svg x="61" y="21" width="20" height="20">
<text x="50%" y="50%" dominant-baseline="central" text-anchor="middle" style="white-space: pre;" fill="#000000" font-family="Consolas" font-size="14"> 9</text>
</svg>
<svg x="81" y="21" width="20" height="20">
<text x="50%" y="50%" dominant-baseline="central" text-anchor="middle" style="white-space: pre;" fill="#000000" font-family="Consolas" font-size="14">10</text>
</svg>
<svg x="101" y="21" width="20" height="20">
<text x="50%" y="50%" dominant-baseline="central" text-anchor="middle" style="white-space: pre;" fill="#000000" font-family="Consolas" font-size="14">11</text>
</svg>
<svg x="1" y="41" width="20" height="20">
<text x="50%" y="50%" dominant-baseline="central" text-anchor="middle" style="white-space: pre;" fill="#000000" font-family="Consolas" font-size="14">12</text>
</svg>
<svg x="41" y="41" width="20" height="20">
<text x="50%" y="50%" dominant-baseline="central" text-anchor="middle" style="white-space: pre;" fill="#000000" font-family="Consolas" font-size="14">14</text>
</svg>
<svg x="1" y="61" width="20" height="20">
<text x="50%" y="50%" dominant-baseline="central" text-anchor="middle" style="white-space: pre;" fill="#000000" font-family="Consolas" font-size="14">18</text>
</svg>
<svg x="41" y="61" width="20" height="20">
<text x="50%" y="50%" dominant-baseline="central" text-anchor="middle" style="white-space: pre;" fill="#000000" font-family="Consolas" font-size="14">20</text>
</svg>
<svg x="61" y="61" width="20" height="20">
<text x="50%" y="50%" dominant-baseline="central" text-anchor="middle" style="white-space: pre;" fill="#000000" font-family="Consolas" font-size="14">21</text>
</svg>
<svg x="81" y="61" width="20" height="20">
<text x="50%" y="50%" dominant-baseline="central" text-anchor="middle" style="white-space: pre;" fill="#000000" font-family="Consolas" font-size="14">22</text>
</svg>
<svg x="1" y="81" width="20" height="20">
<text x="50%" y="50%" dominant-baseline="central" text-anchor="middle" style="white-space: pre;" fill="#000000" font-family="Consolas" font-size="14">24</text>
</svg>
<svg x="21" y="81" width="20" height="20">
<text x="50%" y="50%" dominant-baseline="central" text-anchor="middle" style="white-space: pre;" fill="#000000" font-family="Consolas" font-size="14">25</text>
</svg>
<svg x="41" y="81" width="20" height="20">
<text x="50%" y="50%" dominant-baseline="central" text-anchor="middle" style="white-space: pre;" fill="#000000" font-family="Consolas" font-size="14">26</text>
</svg>
<svg x="61" y="81" width="20" height="20">
<text x="50%" y="50%" dominant-baseline="central" text-anchor="middle" style="white-space: pre;" fill="#000000" font-family="Consolas" font-size="14">27</text>
</svg>
<svg x="81" y="81" width="20" height="20">
<text x="50%" y="50%" dominant-baseline="central" text-anchor="middle" style="white-space: pre;" fill="#000000" font-family="Consolas" font-size="14">28</text>
</svg>
<svg x="21" y="101" width="20" height="20">
<text x="50%" y="50%" dominant-baseline="central" text-anchor="middle" style="white-space: pre;" fill="#000000" font-family="Consolas" font-size="14">31</text>
</svg>
<svg x="41" y="101" width="20" height="20">
<text x="50%" y="50%" dominant-baseline="central" text-anchor="middle" style="white-space: pre;" fill="#000000" font-family="Consolas" font-size="14">32</text>
</svg>
</svg>
